{"title":"High.Noon.2009.DVDRiP.XviD.OPTIONAL_NORDIC-Zen_Bud","uid":5882072,"size":755709265,"categoryP":"video","categoryS":"movies","magnet":"?xt=urn:btih:63e5d69cdde5d1dcce0b703abcf0b394aa7fb1be&amp;dn=High.Noon.2009.DVDRiP.XviD.OPTIONAL_NORDIC-Zen_Bud&amp;tr=udp%3A%2F%2Ftracker.openbittorrent.com%3A80&amp;tr=udp%3A%2F%2Fopen.demonii.com%3A1337&amp;tr=udp%3A%2F%2Ftracker.coppersurfer.tk%3A6969&amp;tr=udp%3A%2F%2Fexodus.desync.com%3A6969","seeders":0,"leechers":1,"uploader":"Zen_Bud","files":-1,"time":1286870635,"description":"\n************* High.Noon.2009.DVDRiP.XviD.OPTIONAL_NORDIC-Zen_Bud *************\n\nFormat                           : AVI\nFile size                        : 705 MiB\nDuration                         : 1h 27mn\nOverall bit rate                 : 1 126 Kbps\n\nVideo\n\nFormat                           : MPEG-4 Visual\nCodec ID/Hint                    : XviD\nDuration                         : 1h 27mn\nBit rate                         : 985 Kbps\nWidth                            : 720 pixels\nHeight                           : 572 pixels\nDisplay aspect ratio             : 16:9\nStream size                      : 617 MiB (87%)\nWriting library                  : XviD 1.1.2 (UTC 2006-11-01)\n\nAudio\n\nFormat                           : MPEG Audio\nCodec ID/Hint                    : MP3\nDuration                         : 1h 27mn\nBit rate                         : 128 Kbps\nChannel(s)                       : 2 channels\nSampling rate                    : 48.0 KHz\nStream size                      : 80.2 MiB (11%)\nWriting library                  : LAME3.98\nLanguage                         : English\n\nText #1\nLanguage                         : Swedish\n\nText #2\nLanguage                         : Danish\n\nText #3\nLanguage                         : Norwegian\n\nText #4\nLanguage                         : Finnish\n\n\n &lt;a href=&quot;\nhttp://en.wikipedia.org/wiki/High_Noon_%282009_film%29&quot; rel=&quot;nofollow&quot; target=&quot;_NEW&quot;&gt;\nhttp://en.wikipedia.org/wiki/High_Noon_%282009_film%29&lt;/a&gt;","torrent":{"xt":"urn:btih:63e5d69cdde5d1dcce0b703abcf0b394aa7fb1be","amp;dn":"High.Noon.2009.DVDRiP.XviD.OPTIONAL_NORDIC-Zen_Bud","amp;tr":["udp%3A%2F%2Ftracker.openbittorrent.com%3A80","udp%3A%2F%2Fopen.demonii.com%3A1337","udp%3A%2F%2Ftracker.coppersurfer.tk%3A6969","udp%3A%2F%2Fexodus.desync.com%3A6969"],"infoHash":"63e5d69cdde5d1dcce0b703abcf0b394aa7fb1be","infoHashBuffer":{"type":"Buffer","data":[99,229,214,156,221,229,209,220,206,11,112,58,188,240,179,148,170,127,177,190]},"announce":[],"urlList":[]}}